<mxfile host="app.diagrams.net" modified="2024-02-03T13:53:30.490Z" agent="Mozilla/5.0 (Windows NT 10.0; Win64; x64) AppleWebKit/537.36 (KHTML, like Gecko) Chrome/121.0.0.0 Safari/537.36" etag="9SsqbOW-djiFurZ0Hypp" version="23.1.1" type="github">
  <diagram name="Trang-1" id="lZn9iiJqx_FniXreJGbP">
    <mxGraphModel dx="1450" dy="922" grid="1" gridSize="10" guides="1" tooltips="1" connect="1" arrows="1" fold="1" page="0" pageScale="1" pageWidth="827" pageHeight="1169" math="0" shadow="0">
      <root>
        <mxCell id="0" />
        <mxCell id="1" parent="0" />
        <mxCell id="vsukFuNr8FSRCI1odPHn-1" value="Chưa đăng nhập" style="html=1;whiteSpace=wrap;" vertex="1" parent="1">
          <mxGeometry x="120" y="-5" width="110" height="50" as="geometry" />
        </mxCell>
        <mxCell id="vsukFuNr8FSRCI1odPHn-6" value="&lt;p style=&quot;margin:0px;margin-top:4px;text-align:center;text-decoration:underline;&quot;&gt;&lt;b&gt;Object:Type&lt;/b&gt;&lt;/p&gt;&lt;hr/&gt;&lt;p style=&quot;margin:0px;margin-left:8px;&quot;&gt;field1 = value1&lt;br/&gt;field2 = value2&lt;br&gt;field3 = value3&lt;/p&gt;" style="verticalAlign=top;align=left;overflow=fill;fontSize=12;fontFamily=Helvetica;html=1;whiteSpace=wrap;" vertex="1" parent="1">
          <mxGeometry x="120" y="360" width="120" height="80" as="geometry" />
        </mxCell>
        <mxCell id="vsukFuNr8FSRCI1odPHn-9" value="" style="ellipse;whiteSpace=wrap;html=1;aspect=fixed;" vertex="1" parent="1">
          <mxGeometry x="-40" width="40" height="40" as="geometry" />
        </mxCell>
        <mxCell id="vsukFuNr8FSRCI1odPHn-12" value="" style="endArrow=open;endFill=1;endSize=12;html=1;rounded=0;" edge="1" parent="1">
          <mxGeometry width="160" relative="1" as="geometry">
            <mxPoint x="480" y="440" as="sourcePoint" />
            <mxPoint x="600" y="440" as="targetPoint" />
          </mxGeometry>
        </mxCell>
        <mxCell id="vsukFuNr8FSRCI1odPHn-13" value="" style="group" vertex="1" connectable="0" parent="1">
          <mxGeometry x="680" y="290" width="40" height="40" as="geometry" />
        </mxCell>
        <mxCell id="vsukFuNr8FSRCI1odPHn-10" value="" style="ellipse;whiteSpace=wrap;html=1;aspect=fixed;" vertex="1" parent="vsukFuNr8FSRCI1odPHn-13">
          <mxGeometry width="40" height="40" as="geometry" />
        </mxCell>
        <mxCell id="vsukFuNr8FSRCI1odPHn-11" value="" style="ellipse;whiteSpace=wrap;html=1;aspect=fixed;fillColor=#000000;" vertex="1" parent="vsukFuNr8FSRCI1odPHn-13">
          <mxGeometry x="5" y="5" width="30" height="30" as="geometry" />
        </mxCell>
        <mxCell id="vsukFuNr8FSRCI1odPHn-15" value="" style="endArrow=open;endFill=1;endSize=12;html=1;rounded=0;" edge="1" parent="1">
          <mxGeometry width="160" relative="1" as="geometry">
            <mxPoint x="480" y="400" as="sourcePoint" />
            <mxPoint x="600" y="360" as="targetPoint" />
            <Array as="points">
              <mxPoint x="600" y="400" />
            </Array>
          </mxGeometry>
        </mxCell>
        <mxCell id="vsukFuNr8FSRCI1odPHn-16" value="" style="endArrow=open;endFill=1;endSize=12;html=1;rounded=0;" edge="1" parent="1">
          <mxGeometry width="160" relative="1" as="geometry">
            <mxPoint x="480" y="480" as="sourcePoint" />
            <mxPoint x="600" y="520" as="targetPoint" />
            <Array as="points">
              <mxPoint x="600" y="480" />
            </Array>
          </mxGeometry>
        </mxCell>
        <mxCell id="vsukFuNr8FSRCI1odPHn-17" value="" style="endArrow=open;endFill=1;endSize=12;html=1;rounded=0;" edge="1" parent="1">
          <mxGeometry width="160" relative="1" as="geometry">
            <mxPoint y="19.5" as="sourcePoint" />
            <mxPoint x="120" y="19.5" as="targetPoint" />
          </mxGeometry>
        </mxCell>
        <mxCell id="vsukFuNr8FSRCI1odPHn-18" value="&lt;span style=&quot;font-weight: 400;&quot;&gt;Nhân viên truy cập &lt;br&gt;vào hệ thống&lt;/span&gt;" style="text;align=center;fontStyle=1;verticalAlign=middle;spacingLeft=3;spacingRight=3;strokeColor=none;rotatable=0;points=[[0,0.5],[1,0.5]];portConstraint=eastwest;html=1;" vertex="1" parent="1">
          <mxGeometry x="-10" y="-30" width="130" height="60" as="geometry" />
        </mxCell>
      </root>
    </mxGraphModel>
  </diagram>
</mxfile>
